<svg xmlns="http://www.w3.org/2000/svg" width="48" height="48" fill="none" viewBox="0 0 48 48">
  <defs>
    <linearGradient id="g1" x1="8" y1="4" x2="40" y2="44" gradientUnits="userSpaceOnUse">
      <stop offset="0" stop-color="#863bff"/>
      <stop offset="1" stop-color="#47bfff"/>
    </linearGradient>
    <linearGradient id="g2" x1="14" y1="16" x2="34" y2="38" gradientUnits="userSpaceOnUse">
      <stop offset="0" stop-color="#fff" stop-opacity=".9"/>
      <stop offset="1" stop-color="#ede6ff" stop-opacity=".7"/>
    </linearGradient>
    <filter id="shadow" x="-2" y="-1" width="52" height="52" filterUnits="userSpaceOnUse" color-interpolation-filters="sRGB">
      <feDropShadow dx="0" dy="2" stdDeviation="2.5" flood-color="#863bff" flood-opacity=".25"/>
    </filter>
  </defs>
  <!-- Paper base with folded corner -->
  <g filter="url(#shadow)">
    <path d="M10 4h20l10 10v28a4 4 0 0 1-4 4H14a4 4 0 0 1-4-4V8a4 4 0 0 1 4-4z" fill="url(#g1)"/>
    <path d="M30 4v6a4 4 0 0 0 4 4h6z" fill="#ede6ff" fill-opacity=".5"/>
  </g>
  <!-- Content lines representing resume text -->
  <rect x="16" y="20" width="16" height="2" rx="1" fill="url(#g2)"/>
  <rect x="16" y="25" width="12" height="1.5" rx=".75" fill="url(#g2)" opacity=".6"/>
  <rect x="16" y="29" width="14" height="1.5" rx=".75" fill="url(#g2)" opacity=".6"/>
  <rect x="16" y="33" width="10" height="1.5" rx=".75" fill="url(#g2)" opacity=".6"/>
  <!-- Small avatar circle -->
  <circle cx="20" cy="15" r="2.5" fill="url(#g2)" opacity=".8"/>
</svg>
